<svg xmlns="http://www.w3.org/2000/svg" viewBox="0 0 109.76 49.16"><defs><style>.cls-1{fill:#201747;}.cls-2{fill:#00bd94;}</style></defs><g id="Capa_2" data-name="Capa 2"><g id="Capa_1-2" data-name="Capa 1"><rect class="cls-1" y="40.34" width="0.56" height="3.24"/><polygon class="cls-1" points="2.16 40.34 1.66 40.34 1.66 43.59 2.23 43.59 2.23 41.26 4.24 43.59 4.73 43.59 4.73 40.34 4.17 40.34 4.17 42.66 2.16 40.34"/><path class="cls-1" d="M7.28,41.71c-.49-.09-1-.18-1-.45s.36-.46.92-.46a2,2,0,0,1,1.07.33l.13.08.23-.44-.06,0a2.23,2.23,0,0,0-1.39-.43c-.89,0-1.47.38-1.47,1s.78.84,1.47,1c.49.09,1,.17,1,.44s-.7.45-1,.45A2.25,2.25,0,0,1,6,42.74l-.1-.07-.24.44.06,0a2.28,2.28,0,0,0,1.48.48c1,0,1.55-.36,1.55-1S8,41.83,7.28,41.71Z"/><polygon class="cls-1" points="10.63 43.59 11.19 43.59 11.19 40.85 12.42 40.85 12.42 40.34 9.4 40.34 9.4 40.85 10.63 40.85 10.63 43.59"/><rect class="cls-1" x="13.24" y="40.34" width="0.56" height="3.24"/><polygon class="cls-1" points="14.62 40.85 15.85 40.85 15.85 43.59 16.42 43.59 16.42 40.85 17.65 40.85 17.65 40.34 14.62 40.34 14.62 40.85"/><path class="cls-1" d="M20.92,42.31c0,.47-.39.79-1,.79s-1-.32-1-.79v-2h-.56v2A1.35,1.35,0,0,0,20,43.63c.94,0,1.54-.52,1.54-1.32v-2h-.57Z"/><polygon class="cls-1" points="22.26 40.85 23.49 40.85 23.49 43.59 24.05 43.59 24.05 40.85 25.29 40.85 25.29 40.34 22.26 40.34 22.26 40.85"/><path class="cls-1" d="M27.51,40.3A1.67,1.67,0,1,0,29.2,42,1.55,1.55,0,0,0,27.51,40.3Zm0,2.82A1.16,1.16,0,1,1,28.64,42,1,1,0,0,1,27.51,43.12Z"/><polygon class="cls-1" points="35.42 43.59 35.97 43.59 35.97 40.34 35.47 40.34 34.1 42.51 32.73 40.34 32.24 40.34 32.24 43.59 32.79 43.59 32.79 41.45 33.9 43.19 34.3 43.19 35.42 41.45 35.42 43.59"/><polygon class="cls-1" points="39.91 43.08 37.63 43.08 37.63 42.19 39.13 42.19 39.13 41.69 37.63 41.69 37.63 40.85 39.87 40.85 39.87 40.34 37.06 40.34 37.06 43.59 39.91 43.59 39.91 43.08"/><polygon class="cls-1" points="40.52 40.85 41.75 40.85 41.75 43.59 42.31 43.59 42.31 40.85 43.54 40.85 43.54 40.34 40.52 40.34 40.52 40.85"/><path class="cls-1" d="M46.78,43.58h.64l-.89-1.26a1,1,0,0,0,.76-1c0-.62-.46-1-1.19-1H44.36v3.24h.56V42.37h1Zm-1.86-2.73h1.15c.42,0,.66.19.66.51s-.46.51-.66.51H44.92Z"/><path class="cls-1" d="M49.83,40.3A1.67,1.67,0,1,0,51.52,42,1.55,1.55,0,0,0,49.83,40.3Zm0,2.82A1.16,1.16,0,1,1,51,42,1,1,0,0,1,49.83,43.12Z"/><path class="cls-1" d="M54.21,40.34H52.48v3.24h.57V42.46h1.16a1.07,1.07,0,1,0,0-2.12Zm0,1.61H53.05v-1.1h1.13c.42,0,.68.21.68.55S54.61,42,54.18,42Z"/><path class="cls-1" d="M57.89,40.3A1.67,1.67,0,1,0,59.58,42,1.56,1.56,0,0,0,57.89,40.3Zm0,2.82A1.16,1.16,0,1,1,59,42,1,1,0,0,1,57.89,43.12Z"/><polygon class="cls-1" points="60.54 40.34 60.54 43.59 63.22 43.59 63.22 43.08 61.11 43.08 61.11 40.34 60.54 40.34"/><rect class="cls-1" x="64.04" y="40.34" width="0.56" height="3.24"/><polygon class="cls-1" points="65.43 40.85 66.66 40.85 66.66 43.59 67.22 43.59 67.22 40.85 68.45 40.85 68.45 40.34 65.43 40.34 65.43 40.85"/><path class="cls-1" d="M70,40.34,68.5,43.58h.6l.35-.73h1.71l.35.73h.6l-1.54-3.24Zm-.34,2,.61-1.28.61,1.28Z"/><polygon class="cls-1" points="75.39 42.66 73.38 40.34 72.88 40.34 72.88 43.59 73.44 43.59 73.44 41.26 75.45 43.59 75.95 43.59 75.95 40.34 75.39 40.34 75.39 42.66"/><path class="cls-1" d="M78.6,43.63A1.67,1.67,0,1,0,76.92,42,1.56,1.56,0,0,0,78.6,43.63Zm0-2.83A1.16,1.16,0,1,1,77.48,42,1.05,1.05,0,0,1,78.6,40.8Z"/><path class="cls-1" d="M85.06,42.46a1.07,1.07,0,1,0,0-2.12H83.33v3.24h.56V42.46Zm-1.17-1.61H85c.42,0,.67.21.67.55S85.45,42,85,42H83.89Z"/><path class="cls-1" d="M89.17,42.85l.35.73h.6l-1.51-3.19,0,0h-.54l-1.54,3.24h.6l.35-.73Zm-.85-1.79.61,1.28H87.71Z"/><path class="cls-1" d="M94,43.58l-.89-1.26a1,1,0,0,0,.76-1c0-.62-.47-1-1.19-1H90.9v3.24h.56V42.37h1l.84,1.21Zm-2.5-1.71v-1h1.15c.41,0,.66.19.66.51s-.46.51-.66.51Z"/><path class="cls-1" d="M96.56,40.34H96l-1.53,3.24h.6l.35-.73h1.71l.35.73h.6l-1.51-3.19Zm-.88,2,.61-1.28.61,1.28Z"/><polygon class="cls-1" points="0.58 45.87 0.02 45.87 0.02 49.11 2.69 49.11 2.69 48.61 0.58 48.61 0.58 45.87"/><path class="cls-1" d="M4.76,45.87,3.23,49.11h.6l.35-.73H5.89l.35.73h.6L5.31,45.87Zm-.34,2L5,46.58l.62,1.29Z"/><polygon class="cls-1" points="10.33 47.72 11.83 47.72 11.83 47.22 10.33 47.22 10.33 46.38 12.57 46.38 12.57 45.87 9.77 45.87 9.77 49.11 12.62 49.11 12.62 48.61 10.33 48.61 10.33 47.72"/><path class="cls-1" d="M14.93,45.87H13.54v3.24h1.39a1.63,1.63,0,1,0,0-3.24Zm-.06,2.74h-.76V46.38h.76c.83,0,1.27.38,1.27,1.11S15.7,48.61,14.87,48.61Z"/><path class="cls-1" d="M20.16,47.84c0,.47-.39.79-1,.79s-1-.32-1-.79v-2h-.56v2c0,.8.6,1.32,1.54,1.32a1.35,1.35,0,0,0,1.53-1.32v-2h-.56Z"/><path class="cls-1" d="M23.44,46.33a1.12,1.12,0,0,1,.95.4l.05.08.41-.34,0-.06a1.65,1.65,0,0,0-1.41-.58,1.67,1.67,0,1,0,0,3.33,1.68,1.68,0,0,0,1.41-.58l0-.07-.41-.34-.05.08a1.12,1.12,0,0,1-.95.4,1.16,1.16,0,1,1,0-2.32Z"/><path class="cls-1" d="M27,45.87l-1.54,3.24H26l.35-.73h1.71l.35.73H29l-1.53-3.24Zm-.34,2,.61-1.29.61,1.29Z"/><path class="cls-1" d="M31.35,46.33a1.12,1.12,0,0,1,.95.4l.05.08.41-.34,0-.06a1.65,1.65,0,0,0-1.41-.58,1.67,1.67,0,1,0,0,3.33,1.68,1.68,0,0,0,1.41-.58l0-.07-.41-.34-.05.08a1.12,1.12,0,0,1-.95.4,1.16,1.16,0,1,1,0-2.32Z"/><rect class="cls-1" x="33.67" y="45.87" width="0.56" height="3.24"/><path class="cls-1" d="M36.93,45.83a1.67,1.67,0,1,0,1.69,1.66A1.55,1.55,0,0,0,36.93,45.83Zm0,2.82a1.16,1.16,0,1,1,1.12-1.16A1,1,0,0,1,36.93,48.65Z"/><polygon class="cls-1" points="42.13 48.19 40.12 45.87 39.62 45.87 39.62 49.11 40.19 49.11 40.19 46.79 42.2 49.11 42.69 49.11 42.69 45.87 42.13 45.87 42.13 48.19"/><polygon class="cls-1" points="47.29 47.31 46.23 45.87 45.56 45.87 47.01 47.83 47.01 49.11 47.58 49.11 47.58 47.83 49.02 45.87 48.36 45.87 47.29 47.31"/><polygon class="cls-1" points="52.46 45.87 51.9 45.87 51.9 49.11 54.57 49.11 54.57 48.61 52.46 48.61 52.46 45.87"/><path class="cls-1" d="M56.65,45.87l-1.54,3.24h.6l.35-.73h1.71l.35.73h.6l-1.53-3.24Zm-.34,2,.61-1.29.61,1.29Z"/><polygon class="cls-1" points="61.37 46.38 62.6 46.38 62.6 49.11 63.16 49.11 63.16 46.38 64.39 46.38 64.39 45.87 61.37 45.87 61.37 46.38"/><polygon class="cls-1" points="65.82 47.72 67.31 47.72 67.31 47.22 65.82 47.22 65.82 46.38 68.06 46.38 68.06 45.87 65.25 45.87 65.25 49.11 68.1 49.11 68.1 48.61 65.82 48.61 65.82 47.72"/><path class="cls-1" d="M70.52,46.33a1.12,1.12,0,0,1,1,.4l0,.08.41-.34,0-.06a1.65,1.65,0,0,0-1.41-.58,1.67,1.67,0,1,0,0,3.33,1.68,1.68,0,0,0,1.41-.58l0-.07-.41-.34,0,.08a1.12,1.12,0,0,1-1,.4,1.16,1.16,0,1,1,0-2.32Z"/><polygon class="cls-1" points="75.35 48.19 73.34 45.87 72.84 45.87 72.84 49.11 73.41 49.11 73.41 46.79 75.42 49.11 75.91 49.11 75.91 45.87 75.35 45.87 75.35 48.19"/><path class="cls-1" d="M78.61,45.83a1.67,1.67,0,1,0,1.68,1.66A1.55,1.55,0,0,0,78.61,45.83Zm0,2.82a1.16,1.16,0,1,1,1.12-1.16A1,1,0,0,1,78.61,48.65Z"/><polygon class="cls-1" points="81.86 45.87 81.3 45.87 81.3 49.11 83.97 49.11 83.97 48.61 81.86 48.61 81.86 45.87"/><path class="cls-1" d="M86.25,45.83a1.67,1.67,0,1,0,1.69,1.66A1.54,1.54,0,0,0,86.25,45.83Zm0,2.82a1.16,1.16,0,1,1,1.13-1.16A1,1,0,0,1,86.25,48.65Z"/><path class="cls-1" d="M90.39,47.86h1.1v.21a.94.94,0,0,1-1,.58,1.05,1.05,0,0,1-1.15-1.16,1.08,1.08,0,0,1,1.18-1.16,1.1,1.1,0,0,1,1,.4l.06.08.41-.34,0-.06a1.63,1.63,0,0,0-1.41-.58,1.67,1.67,0,1,0,1,3l0,.3H92V47.34H90.39Z"/><rect class="cls-1" x="93.1" y="45.87" width="0.56" height="3.24"/><path class="cls-1" d="M96.55,45.87H96l-1.54,3.24h.6l.35-.73h1.71l.35.73h.6l-1.51-3.19Zm-.89,2,.62-1.29.61,1.29Z"/><polygon class="cls-1" points="93.01 45.56 93.38 45.56 94.08 44.94 93.47 44.94 93.01 45.56"/><polygon class="cls-1" points="36.54 45.56 36.92 45.56 37.62 44.94 37 44.94 36.54 45.56"/><rect class="cls-2" width="7.42" height="7.42"/><polygon class="cls-2" points="43.4 0 32.3 16.7 21.19 0 13.77 0 13.77 0 13.77 34.24 21.18 34.24 21.19 34.24 21.19 13.15 28.91 24.83 35.64 24.83 43.4 13.14 43.4 34.24 43.42 34.24 50.82 34.24 50.82 0 50.82 0 43.4 0"/><rect class="cls-2" y="13.77" width="7.42" height="20.47"/><rect class="cls-2" x="70.94" y="13.41" width="7.42" height="7.42"/><polygon class="cls-2" points="109.76 0 64.59 0 57.17 0 57.17 7.42 57.17 26.82 57.17 34.24 64.59 34.24 84.25 34.24 84.25 26.82 64.59 26.82 64.59 7.42 90.6 7.42 90.6 34.24 98.02 34.24 98.02 7.42 109.76 7.42 109.76 0"/></g></g></svg>